<svg width="132" height="29" viewBox="0 0 132 29" fill="none" xmlns="http://www.w3.org/2000/svg">
<path d="M61.3627 13.0616L57.9453 18.2936H57.8761L54.4942 13.1143V21.0573H51.8578V8.80984H54.7372L57.928 13.9892L61.1187 8.80984H63.9982V21.0573H61.3618V13.0616H61.3627ZM88.2088 8.80984H97.3486V11.2074H90.8451V13.6921H96.5676V16.0887H90.8451V18.6616H97.4351V21.0582H88.2088V8.80984ZM112.108 13.0262V12.9916C112.108 12.4084 111.923 11.9705 111.553 11.6789C111.183 11.3882 110.669 11.241 110.01 11.241H107.356V14.7587H110.063C110.722 14.7587 111.227 14.6015 111.58 14.2863C111.931 13.9719 112.108 13.5522 112.108 13.0262ZM40.2737 15.9315L38.6605 11.9596L37.0483 15.9315H40.2737ZM122.606 3.56056H9.39476L6.5035 8.80984H26.3991V11.2946H22.7049V21.0573H20.034V11.2946H5.13525L3.17164 14.8604L9.63509 26.1612H44.3238L41.2277 18.31H36.0943L34.9846 21.0564H32.2617L37.4643 8.72081H39.9268L47.0421 26.1603H71.7679V8.80802H76.7284C77.4567 8.80802 78.1076 8.91068 78.6802 9.11419C79.2528 9.31769 79.7371 9.60659 80.1367 9.97998C80.5364 10.3534 80.8414 10.7994 81.0571 11.3182C81.2701 11.8379 81.3775 12.412 81.3775 13.0416V13.0761C81.3775 13.7884 81.2501 14.4125 80.9961 14.9495C80.7421 15.4855 80.3916 15.9352 79.9474 16.2958C79.5022 16.6574 78.9815 16.9291 78.3862 17.1099C77.7908 17.2906 77.1517 17.3815 76.4699 17.3815H74.4407V26.1594H115.185L109.456 17.1362H109.422H107.357V21.0545H104.686V8.80984H110.236C111.773 8.80984 112.953 9.22412 113.775 10.0518C114.469 10.7522 114.815 11.6852 114.815 12.8517V12.8872C114.815 13.8783 114.575 14.686 114.095 15.3101C113.617 15.9352 112.988 16.3912 112.215 16.6838L118.278 26.1621H122.608L128.991 14.8613L122.606 3.56056ZM74.4398 14.9867H76.5555C77.2255 14.9867 77.7462 14.8086 78.1167 14.4534C78.4854 14.0973 78.6711 13.6567 78.6711 13.1316V13.0961C78.6711 12.4902 78.4772 12.0286 78.0903 11.7143C77.7016 11.3991 77.1727 11.241 76.5027 11.241H74.4389V14.9867H74.4398ZM124.051 28.834H7.94913L0 14.8613L7.94913 0.888672H124.051L132 14.8613L124.051 28.834Z" fill="white"/>
</svg>
